<?xml version="1.0" encoding="UTF-8"?>
<svg version="1.1" xmlns="http://www.w3.org/2000/svg" width="1024" height="1024">
<path d="M0 0 C337.92 0 675.84 0 1024 0 C1024 337.92 1024 675.84 1024 1024 C686.08 1024 348.16 1024 0 1024 C0 686.08 0 348.16 0 0 Z " fill="#190939" transform="translate(0,0)"/>
<path d="M0 0 C3.43363672 2.72519059 6.47083709 5.70808974 9.4921875 8.87890625 C11.9845955 11.46396882 14.64071874 13.77655095 17.36328125 16.11328125 C20.15240523 18.54582721 22.87302239 21.05027754 25.59375 23.55859375 C29.59820974 27.24885549 33.63727769 30.88773822 37.77734375 34.42578125 C39.19359571 35.69888516 40.5543093 37.03385548 41.890625 38.390625 C44.93276746 41.39320203 48.13510447 44.12444878 51.40625 46.87109375 C56.07878082 50.83042326 60.54261281 54.87299486 64.8125 59.26953125 C67.26049085 61.7282589 69.86652057 63.97640928 72.4921875 66.2421875 C79.45403381 72.25939667 86.19037832 78.52009573 92.90625 84.80859375 C93.58816406 85.44667969 94.27007813 86.08476562 94.97265625 86.7421875 C98.57389286 90.12366361 102.12685462 93.53836152 105.59375 97.05859375 C106.65335938 98.12207031 106.65335938 98.12207031 107.734375 99.20703125 C114.3073137 106.14513321 118.99595264 113.74628489 123.59375 122.05859375 C124.08875 122.94675781 124.58375 123.83492187 125.09375 124.75 C130.09985979 134.24596452 133.3439884 144.40583759 135.84375 154.80859375 C136.00689697 155.48092041 136.17004395 156.15324707 136.33813477 156.84594727 C144.08781974 190.79360932 137.48277023 229.52877707 119.32275391 259.13037109 C113.5242557 268.23865971 107.04621815 276.24881548 99.59375 284.05859375 C98.33485264 285.46735984 97.08400531 286.88338808 95.84375 288.30859375 C95.29332031 288.93765625 94.74289062 289.56671875 94.17578125 290.21484375 C93.11512296 291.45096897 92.07085996 292.7013402 91.04296875 293.96484375 C87.21083846 298.6386564 83.56660442 302.10981042 77.65625 303.99609375 C72.48424595 304.10164485 68.9608184 302.28545001 65.15625 298.87109375 C63.08704618 295.14652687 62.62526583 292.15432072 63.59375 288.05859375 C65.25851851 284.79964761 67.38572622 281.96850588 69.59375 279.05859375 C84.21436296 258.98507152 96.51815033 234.65311812 94.59375 209.05859375 C94.54992187 208.02605469 94.50609375 206.99351562 94.4609375 205.9296875 C92.94086843 177.94058967 78.89081759 153.57774499 58.65576172 134.90185547 C47.61764091 125.03472166 31.71074477 111.12093365 16.09375 110.80859375 C15.3203125 110.7828125 14.546875 110.75703125 13.75 110.73046875 C11.00929608 111.14753239 10.30144539 111.90934567 8.59375 114.05859375 C8.14784352 116.08265624 8.14784352 116.08265624 8.22016239 118.34871387 C8.21317265 119.22938552 8.2061829 120.11005716 8.19898134 121.01741582 C8.2065574 121.98586248 8.21413345 122.95430914 8.22193909 123.95210266 C8.21811452 124.98044934 8.21428996 126.00879602 8.2103495 127.06830472 C8.20102665 130.53175645 8.2130805 133.99481236 8.22485352 137.45825195 C8.22238668 139.93528408 8.21854945 142.41231517 8.21343994 144.88934326 C8.20508319 150.23570446 8.20562257 155.58195491 8.21362495 160.92830849 C8.22486382 168.68221653 8.2158065 176.43600262 8.20106315 184.18990006 C8.17726602 196.80132124 8.16392345 209.41272739 8.15991211 222.02416992 C8.15966724 222.77930935 8.15942237 223.53444879 8.15917008 224.31247123 C8.15663112 232.71315657 8.15605354 241.11384075 8.15710449 249.51452637 C8.15743743 252.54833984 8.15772287 255.58215331 8.15795898 258.6159668 C8.15805317 259.73865204 8.15805317 259.73865204 8.15814925 260.8840178 C8.15875696 273.42512921 8.14374869 285.96617166 8.11712593 298.5072543 C8.10142133 306.22552014 8.0989564 313.94356156 8.11425995 321.66182937 C8.12496153 327.60551688 8.1148955 333.54906121 8.09770203 339.49273682 C8.09401068 341.91039663 8.0969811 344.32807857 8.10757256 346.745718 C8.19190706 367.39406103 6.65109592 387.21008916 -2.40625 406.05859375 C-2.84710937 406.98744385 -2.84710937 406.98744385 -3.296875 407.93505859 C-7.93398348 417.5752338 -13.63382459 425.7888634 -20.40625 434.05859375 C-21.09203125 434.93902344 -21.7778125 435.81945312 -22.484375 436.7265625 C-25.4228687 440.29217376 -28.88702375 443.08256498 -32.40625 446.05859375 C-33.28410156 446.83589844 -34.16195312 447.61320312 -35.06640625 448.4140625 C-53.72154093 464.6086276 -78.71016335 477.06865873 -103.40625 480.05859375 C-104.24671875 480.16816406 -105.0871875 480.27773438 -105.953125 480.390625 C-132.2409375 483.30717224 -156.58153474 479.29816657 -177.98828125 463.10546875 C-187.99286542 454.80673534 -194.96092436 443.58358972 -198.40625 431.05859375 C-198.74076172 429.84816406 -198.74076172 429.84816406 -199.08203125 428.61328125 C-204.03396847 407.66018635 -196.98285836 386.47847442 -186.07788086 368.62866211 C-172.7899244 347.68314597 -155.39492477 332.34899822 -133.40625 321.05859375 C-132.31570313 320.49269531 -131.22515625 319.92679687 -130.1015625 319.34375 C-121.51641659 315.13681441 -112.64929699 312.38631522 -103.40625 310.05859375 C-102.74753906 309.89198242 -102.08882813 309.72537109 -101.41015625 309.55371094 C-88.24140081 306.35425979 -75.21197108 306.60015435 -61.7578125 307.36328125 C-60.38254395 307.4411084 -60.38254395 307.4411084 -58.97949219 307.52050781 C-57.2111305 307.62739033 -55.44343546 307.74610785 -53.67675781 307.87792969 C-51.59018153 308.01443468 -49.49724823 308.04592103 -47.40625 308.05859375 C-44.9001027 305.55244645 -45.15614596 304.77622428 -45.15571022 301.31418705 C-45.15071152 300.30680392 -45.14571283 299.2994208 -45.14056265 298.26151091 C-45.14522587 297.1464649 -45.14988908 296.0314189 -45.1546936 294.88258362 C-45.15172346 293.70440581 -45.14875333 292.526228 -45.14569318 291.31234783 C-45.13935461 288.03159768 -45.14197375 284.75099097 -45.14821196 281.470245 C-45.15273265 277.93560387 -45.14571217 274.40098485 -45.13990784 270.86634827 C-45.13126043 264.73640222 -45.12947027 258.60648504 -45.13185501 252.47653389 C-45.13494898 243.60159618 -45.1233258 234.72672243 -45.10730521 225.85180079 C-45.08131742 211.43807148 -45.06131389 197.02434212 -45.04785156 182.6105957 C-45.04663601 181.3157029 -45.04663601 181.3157029 -45.0453959 179.99465065 C-45.03418779 167.75896968 -45.02889665 155.52329325 -45.02600877 143.28760784 C-45.02580478 142.4270747 -45.02560079 141.56654155 -45.02539062 140.67993164 C-45.02519069 139.82044781 -45.02499075 138.96096397 -45.02478476 138.07543517 C-45.02104782 123.72751674 -45.0019318 109.37966736 -44.97029626 95.03178352 C-44.95140412 86.18423146 -44.94540636 77.3368567 -44.95611344 68.48929005 C-44.96244719 62.41908954 -44.95435087 56.34901578 -44.93505932 50.27884305 C-44.92440746 46.77972755 -44.92017397 43.28092009 -44.93353081 39.78180695 C-44.94467316 35.98006203 -44.9311936 32.17915092 -44.91177368 28.37745667 C-44.92089834 27.28248715 -44.930023 26.18751764 -44.93942416 25.05936724 C-44.85755829 16.79717016 -43.3331856 9.18237346 -38.4765625 2.33984375 C-26.44854823 -8.67375968 -13.53902118 -9.35670861 0 0 Z " fill="#FD5370" transform="translate(530.40625,158.94140625)"/>
<path d="M0 0 C61.83146067 0 61.83146067 0 77.89453125 14.73828125 C89.22725208 26.66356265 92.39897949 41.82560394 92.21484375 57.72265625 C91.18675113 73.40574192 86.42195717 85.19494068 75 96 C54.00500125 113.13427218 25.32039304 108 0 108 C0 72.36 0 36.72 0 0 Z " fill="#FBFBFC" transform="translate(589,738)"/>
<path d="M0 0 C60.00262467 0 60.00262467 0 71 10 C71.886875 10.7425 72.77375 11.485 73.6875 12.25 C80.57468006 20.44016007 82.82571166 29.49511271 82 40 C80.17514205 50.25322731 75.10684317 56.9162569 66.734375 62.87109375 C65 64 65 64 63 65 C64.39491259 69.90469264 66.61560208 73.88685333 69.375 78.125 C70.26729986 79.5236725 71.15783781 80.92347014 72.046875 82.32421875 C72.52060547 83.06978027 72.99433594 83.8153418 73.48242188 84.58349609 C76.25549071 88.99917102 78.94050257 93.46761528 81.625 97.9375 C82.42429932 99.26128662 82.42429932 99.26128662 83.23974609 100.61181641 C83.73039551 101.42956543 84.22104492 102.24731445 84.7265625 103.08984375 C85.16564941 103.82066162 85.60473633 104.55147949 86.05712891 105.30444336 C87 107 87 107 87 108 C79.08 108 71.16 108 63 108 C61.783125 105.81375 60.56625 103.6275 59.3125 101.375 C54.75577318 93.21865112 49.99125667 85.18974661 45.16723633 77.18896484 C44.62607178 76.28355957 44.08490723 75.3781543 43.52734375 74.4453125 C43.03999756 73.63594238 42.55265137 72.82657227 42.05053711 71.99267578 C41 70 41 70 41 68 C34.4 68 27.8 68 21 68 C21 81.2 21 94.4 21 108 C14.07 108 7.14 108 0 108 C0 72.36 0 36.72 0 0 Z " fill="#FDFCFD" transform="translate(481,738)"/>
<path d="M0 0 C8.91 0 17.82 0 27 0 C31.50030078 11.25075196 31.50030078 11.25075196 33.19140625 16.25537109 C33.57318527 17.38084351 33.95496429 18.50631592 34.34831238 19.66589355 C34.94933525 21.45162781 34.94933525 21.45162781 35.5625 23.2734375 C35.99520448 24.55268775 36.42813751 25.8318607 36.86128235 27.11096191 C38.00840555 30.50090159 39.15203057 33.89201117 40.29483414 37.28340912 C41.23823175 40.08161865 42.18370287 42.87912568 43.1291666 45.67663765 C50.14334668 66.43198808 57.11043574 87.20293023 64 108 C56.74 108 49.48 108 42 108 C39.36 100.08 36.72 92.16 34 84 C20.8 84 7.6 84 -6 84 C-8.64 91.92 -11.28 99.84 -14 108 C-21.26 108 -28.52 108 -36 108 C-34.06022305 100.65446379 -31.89471686 93.46667331 -29.41015625 86.2890625 C-28.89885666 84.79673599 -28.89885666 84.79673599 -28.37722778 83.27426147 C-27.6503009 81.15260165 -26.92201893 79.03140568 -26.19247437 76.91064453 C-19.86035167 58.49863012 -13.65377206 40.05452068 -7.75610352 21.49853516 C-7.52913788 20.7887149 -7.30217224 20.07889465 -7.06832886 19.3475647 C-6.47110895 17.47878288 -5.87828346 15.6085982 -5.28588867 13.73828125 C-3.68987261 9.09841074 -1.82230115 4.55575287 0 0 Z " fill="#FCFCFC" transform="translate(397,738)"/>
<path d="M0 0 C6.6 0 13.2 0 20 0 C20 14.19 20 28.38 20 43 C35.18 43 50.36 43 66 43 C66 28.81 66 14.62 66 0 C72.93 0 79.86 0 87 0 C87 35.64 87 71.28 87 108 C80.07 108 73.14 108 66 108 C66 93.15 66 78.3 66 63 C50.82 63 35.64 63 20 63 C20 77.85 20 92.7 20 108 C13.4 108 6.8 108 0 108 C0 72.36 0 36.72 0 0 Z " fill="#FDFCFD" transform="translate(155,738)"/>
<path d="M0 0 C23.1 0 46.2 0 70 0 C70 6.27 70 12.54 70 19 C53.83 19 37.66 19 21 19 C21 27.25 21 35.5 21 44 C35.19 44 49.38 44 64 44 C64 50.27 64 56.54 64 63 C49.81 63 35.62 63 21 63 C21 71.58 21 80.16 21 89 C37.17 89 53.34 89 70 89 C70 95.27 70 101.54 70 108 C46.9 108 23.8 108 0 108 C0 72.36 0 36.72 0 0 Z " fill="#FDFDFD" transform="translate(795,738)"/>
<path d="M0 0 C23.1 0 46.2 0 70 0 C70 6.27 70 12.54 70 19 C53.83 19 37.66 19 21 19 C21 27.25 21 35.5 21 44 C35.19 44 49.38 44 64 44 C64 50.27 64 56.54 64 63 C49.81 63 35.62 63 21 63 C21 71.58 21 80.16 21 89 C36.84 89 52.68 89 69 89 C69 95.27 69 101.54 69 108 C46.23 108 23.46 108 0 108 C0 72.36 0 36.72 0 0 Z " fill="#FCFBFC" transform="translate(272,738)"/>
<path d="M0 0 C6.93 0 13.86 0 21 0 C21 29.37 21 58.74 21 89 C36.51 89 52.02 89 68 89 C68 95.27 68 101.54 68 108 C45.56 108 23.12 108 0 108 C0 72.36 0 36.72 0 0 Z " fill="#FEFDFE" transform="translate(706,738)"/>
<path d="M0 0 C31.89526185 0 31.89526185 0 40.58984375 8.56640625 C47.6505823 16.28315474 50.14430721 25.58070482 49.96582031 35.99414062 C49.39657718 46.22105567 47.49950236 55.98819196 39.875 63.375 C26.50821745 72.42991721 16.84267455 70 0 70 C0 46.9 0 23.8 0 0 Z " fill="#180A37" transform="translate(610,757)"/>
<path d="M0 0 C6.991875 -0.0928125 6.991875 -0.0928125 14.125 -0.1875 C15.58437988 -0.21481201 17.04375977 -0.24212402 18.54736328 -0.27026367 C19.70993652 -0.27775635 20.87250977 -0.28524902 22.0703125 -0.29296875 C23.25383301 -0.3086792 24.43735352 -0.32438965 25.65673828 -0.34057617 C30.70423587 0.17360954 33.92639864 1.81033362 37.3125 5.5625 C40.74703682 10.52349763 40.5944881 15.0802382 40 21 C37.66162093 25.94657111 34.71702485 28.33388588 30 31 C26.56494141 31.45410156 26.56494141 31.45410156 22.8515625 31.390625 C21.64838379 31.38063477 20.44520508 31.37064453 19.20556641 31.36035156 C16.93818604 31.30572754 16.93818604 31.30572754 14.625 31.25 C9.79875 31.1675 4.9725 31.085 0 31 C0 20.77 0 10.54 0 0 Z " fill="#160934" transform="translate(502,757)"/>
<path d="M0 0 C3.3381239 3.73312377 4.5839915 8.00519253 6.13671875 12.66796875 C6.42102249 13.50338699 6.70532623 14.33880524 6.99824524 15.19953918 C7.90153074 17.85992401 8.79442866 20.52367132 9.6875 23.1875 C10.29949248 24.9917529 10.91211563 26.79579201 11.52539062 28.59960938 C16 41.80813445 16 41.80813445 16 43 C6.1 43 -3.8 43 -14 43 C-10.62223232 30.61485182 -10.62223232 30.61485182 -8.80859375 25.1953125 C-8.42123047 24.03515625 -8.03386719 22.875 -7.63476562 21.6796875 C-7.23966797 20.50664063 -6.84457031 19.33359375 -6.4375 18.125 C-5.83905273 16.330625 -5.83905273 16.330625 -5.22851562 14.5 C-3.59224114 9.61576163 -1.95524474 4.7673129 0 0 Z " fill="#170B33" transform="translate(410,760)"/>
<path d="M0 0 C3.84880305 3.03791019 7.2684361 6.38998771 10.55859375 10.01953125 C7.55859375 10.01953125 7.55859375 10.01953125 4.55859375 8.01953125 C4.55859375 7.35953125 4.55859375 6.69953125 4.55859375 6.01953125 C3.77484375 5.93703125 2.99109375 5.85453125 2.18359375 5.76953125 C-0.44140625 5.01953125 -0.44140625 5.01953125 -1.75390625 2.95703125 C-1.98078125 2.31765625 -2.20765625 1.67828125 -2.44140625 1.01953125 C-3.76140625 1.01953125 -5.08140625 1.01953125 -6.44140625 1.01953125 C-6.44140625 0.35953125 -6.44140625 -0.30046875 -6.44140625 -0.98046875 C-9.82872193 -3.2386792 -12.64959925 -3.10236567 -16.5625 -2.97265625 C-18.44140625 -2.98046875 -18.44140625 -2.98046875 -20.50390625 -3.66796875 C-23.94059973 -4.22227415 -26.57832179 -2.69943564 -29.44140625 -0.98046875 C-35.6027431 3.48931971 -39.51267876 7.48850236 -41.44140625 15.01953125 C-41.84139706 18.93831282 -41.81120403 22.82343524 -41.76611328 26.75952148 C-41.76496773 27.91951283 -41.76382217 29.07950417 -41.76264191 30.27464676 C-41.7555001 34.12598843 -41.72720507 37.97688304 -41.69921875 41.828125 C-41.68894343 44.55849152 -41.68348804 47.2888614 -41.67807007 50.01924133 C-41.66444426 55.82233545 -41.64099131 61.62531513 -41.6105957 67.42834473 C-41.5403041 80.96310895 -41.51591751 94.49800057 -41.4895401 108.03290939 C-41.48364262 111.03566051 -41.47701423 114.03840865 -41.46974945 117.04115677 C-41.40688872 143.28715301 -41.56116458 169.5259784 -41.94140625 195.76953125 C-41.96585141 197.49087509 -41.99028592 199.21221908 -42.01470947 200.93356323 C-42.14407697 209.96244524 -42.28467017 218.99107929 -42.44140625 228.01953125 C-42.77140625 228.01953125 -43.10140625 228.01953125 -43.44140625 228.01953125 C-43.53484894 199.9948279 -43.60538524 171.97014789 -43.64865494 143.94532013 C-43.66927984 130.93289482 -43.69739926 117.92056631 -43.74316406 104.90820312 C-43.78303379 93.56658727 -43.80883958 82.22504151 -43.81776023 70.88335752 C-43.82297469 64.87804708 -43.83522947 58.8729372 -43.86432648 52.86769104 C-43.89149747 47.21408756 -43.89984771 41.56076707 -43.89383698 35.90710449 C-43.89493644 33.83347536 -43.90288011 31.75983666 -43.91822815 29.68626404 C-43.93818218 26.85108441 -43.93332551 24.01696784 -43.92242432 21.1817627 C-43.93407568 20.36462059 -43.94572705 19.54747849 -43.95773149 18.70557451 C-43.8885409 12.03044522 -41.80848428 7.07295382 -37.73046875 1.8125 C-26.23570835 -9.27751531 -12.9157346 -8.90417117 0 0 Z " fill="#FA48B1" transform="translate(530.44140625,158.98046875)"/>
<path d="M0 0 C2.09350689 3.4019487 2.17942163 6.05272412 2 10 C2.66 10.33 3.32 10.66 4 11 C4.32100045 13.48926761 4.5171509 15.87437281 4.625 18.375 C4.66149658 19.10090332 4.69799316 19.82680664 4.7355957 20.57470703 C4.83676855 22.71615941 4.92120574 24.85762016 5 27 C5.04253906 28.0415625 5.08507812 29.083125 5.12890625 30.15625 C5.33333378 39.64168752 3.22942862 48.14470167 0 57 C-0.33354492 57.93465088 -0.33354492 57.93465088 -0.67382812 58.88818359 C-1.44059995 61.03284239 -2.21879014 63.17306119 -3 65.3125 C-3.24911133 66.00682129 -3.49822266 66.70114258 -3.75488281 67.41650391 C-5.11163744 71.07511811 -6.63514635 73.92428261 -9 77 C-9 77.99 -9 78.98 -9 80 C-9.66 80 -10.32 80 -11 80 C-11.25136719 80.88945312 -11.50273438 81.77890625 -11.76171875 82.6953125 C-13.0399034 86.10649298 -14.45657322 88.12716953 -16.8125 90.875 C-23.45319338 98.6237779 -23.45319338 98.6237779 -27 108 C-26.27587495 110.6859613 -26.27587495 110.6859613 -25 113 C-24.34 113.33 -23.68 113.66 -23 114 C-23 114.66 -23 115.32 -23 116 C-17.28639834 116.46641646 -13.56081744 115.37675907 -9 112 C-6.35412766 109.60414714 -6.35412766 109.60414714 -4 107 C-2.33333333 105.33333333 -0.66666667 103.66666667 1 102 C2.485 102.495 2.485 102.495 4 103 C1.77206994 105.22793006 -0.45693937 107.45442124 -2.6953125 109.671875 C-4.37684787 111.37051073 -5.99127529 113.13633997 -7.5625 114.9375 C-10.81959282 117.69350162 -13.73229296 118.81338924 -18 119 C-21.99113885 117.86917733 -24.36123075 116.57325446 -27.4375 113.8125 C-29.50670382 110.08793312 -29.96848417 107.09572697 -29 103 C-27.33523149 99.74105386 -25.20802378 96.90991213 -23 94 C-8.40291955 73.95878698 3.97539012 49.5661068 2 24 C1.89945313 22.31197266 1.89945313 22.31197266 1.796875 20.58984375 C1.48750457 15.93381877 1.14280339 11.52359677 0 7 C-0.03888349 4.66699067 -0.0448635 2.33290199 0 0 Z " fill="#F46C4A" transform="translate(623,344)"/>
<path d="M0 0 C0.33 0 0.66 0 1 0 C1.09395973 15.07434496 1.16422969 30.14867634 1.20724869 45.22324944 C1.22776518 52.22461688 1.25567322 59.22580107 1.30175781 66.22705078 C1.34629355 72.99629551 1.36920481 79.76535066 1.37950897 86.53473282 C1.38684278 89.10443218 1.40116217 91.67412237 1.42292023 94.24374008 C1.59491401 115.41751015 -0.55842229 132.9137999 -10 152 C-10.47308594 152.98484375 -10.94617188 153.9696875 -11.43359375 154.984375 C-16.38171149 164.68436786 -23.18111812 173.44592874 -31 181 C-30.75 178.125 -30.75 178.125 -30 175 C-28.0625 173.875 -28.0625 173.875 -26 173 C-24.73195434 170.9664052 -24.73195434 170.9664052 -24 169 C-23.34 169 -22.68 169 -22 169 C-21.938125 168.29875 -21.87625 167.5975 -21.8125 166.875 C-20.70970684 162.97280881 -18.65783979 161.05651576 -16 158 C-15.67 157.01 -15.34 156.02 -15 155 C-14.34 155 -13.68 155 -13 155 C-13 153.68 -13 152.36 -13 151 C-12.34 151 -11.68 151 -11 151 C-10.82791016 150.23623047 -10.82791016 150.23623047 -10.65234375 149.45703125 C-9.59987657 145.4929483 -8.22417136 141.63324574 -6.90429688 137.75195312 C-6.68966797 137.11580078 -6.47503906 136.47964844 -6.25390625 135.82421875 C-6.06127197 135.25791748 -5.8686377 134.69161621 -5.67016602 134.1081543 C-0.94816809 119.25407339 -0.75809659 104.9083998 -0.90625 89.46615601 C-0.96052034 83.66373474 -0.97891483 77.86122693 -0.99609375 72.05859375 C-1.00003143 70.84780655 -1.00396912 69.63701935 -1.00802612 68.38954163 C-1.0354858 53.98552767 -0.77619709 39.5883729 -0.5 25.1875 C-0.47590057 23.91674622 -0.45180115 22.64599243 -0.42697144 21.33673096 C-0.29111723 14.22435023 -0.14939614 7.11210912 0 0 Z " fill="#FC7152" transform="translate(536,417)"/>
<path d="M0 0 C-4.48581547 2.47900329 -8.9091574 3.93472857 -13.828125 5.25390625 C-16.17519215 5.88251483 -16.17519215 5.88251483 -18 8 C-20.57284083 8.81765823 -23.16713179 9.46377054 -25.78515625 10.12109375 C-26.51605469 10.41113281 -27.24695313 10.70117188 -28 11 C-28.33 11.99 -28.66 12.98 -29 14 C-30.65935219 14.68466964 -32.32782416 15.34727481 -34 16 C-36.1678379 17.51831925 -38.24231367 19.04787828 -40.3125 20.6875 C-40.88718018 21.13810791 -41.46186035 21.58871582 -42.05395508 22.05297852 C-43.71012335 23.35959671 -45.35704199 24.67682642 -47 26 C-47.75023437 26.60328125 -48.50046875 27.2065625 -49.2734375 27.828125 C-61.09541829 37.71990441 -61.09541829 37.71990441 -67.3046875 51.3203125 C-67.53414063 51.87460937 -67.76359375 52.42890625 -68 53 C-69.3228853 53.37264375 -70.65776264 53.70455497 -72 54 C-74.9400811 58.45466833 -76.90892527 63.09052021 -79 68 C-79.7734375 69.175625 -79.7734375 69.175625 -80.5625 70.375 C-83.02439113 74.87062727 -84 79.8920841 -84 85 C-84.62599617 86.68236471 -85.28752268 88.3523962 -86 90 C-86.66 90 -87.32 90 -88 90 C-87.9074546 67.74283202 -71.9563956 46.33877487 -57.1875 30.8125 C-46.23580276 20.41616266 -16.04088718 -5.34696239 0 0 Z " fill="#F54C9D" transform="translate(420,473)"/>
<path d="M0 0 C0.33 0 0.66 0 1 0 C1 29.37 1 58.74 1 89 C0.01 88.34 -0.98 87.68 -2 87 C-2.28644682 84.36742247 -2.37843744 81.97088158 -2.34057617 79.33740234 C-2.34101425 78.54707108 -2.34145233 77.75673981 -2.34190369 76.94245911 C-2.33980932 74.3233695 -2.31644826 71.70491563 -2.29296875 69.0859375 C-2.28737509 67.2727595 -2.28310391 65.45957697 -2.28010559 63.64639282 C-2.26863869 58.86885102 -2.23915575 54.09158186 -2.20599365 49.31414795 C-2.17533243 44.44124032 -2.16160871 39.56828874 -2.14648438 34.6953125 C-2.11428773 25.1300884 -2.0630692 15.56506685 -2 6 C-1.67 6 -1.34 6 -1 6 C-0.67 4.02 -0.34 2.04 0 0 Z " fill="#D7D2DB" transform="translate(726,738)"/>
<path d="M0 0 C0.99 0.495 0.99 0.495 2 1 C-25.0783116 21.6912897 -60.03963482 31.47526124 -93.875 27.125 C-99.71276596 26.28723404 -99.71276596 26.28723404 -102 24 C-101.13761719 24.0721875 -100.27523438 24.144375 -99.38671875 24.21875 C-84.05450295 25.38445173 -68.12083178 26.30768195 -53 23 C-52.34 23 -51.68 23 -51 23 C-50.67 22.34 -50.34 21.68 -50 21 C-49.01 21 -48.02 21 -47 21 C-42.14397798 20.14519463 -37.51601675 19.00711856 -33 17 C-32.24460937 16.70351563 -31.48921875 16.40703125 -30.7109375 16.1015625 C-26.91131999 14.5576257 -23.2287652 12.77966131 -19.5234375 11.0234375 C-17 10 -17 10 -14 10 C-14 9.34 -14 8.68 -14 8 C-13.23816406 7.63648438 -13.23816406 7.63648438 -12.4609375 7.265625 C-8.05829981 5.12201863 -4.01142366 2.80799656 0 0 Z " fill="#F06B51" transform="translate(486,612)"/>
<path d="M0 0 C0.66 0.33 1.32 0.66 2 1 C2.81640625 3.80859375 2.81640625 3.80859375 3.5625 7.4375 C3.81128906 8.61183594 4.06007813 9.78617187 4.31640625 10.99609375 C9.5719262 39.70350885 6.68743303 72.92483085 -7 99 C-8.27597072 95.17208785 -7.86635876 92.93193593 -7 89 C-6.071875 87.63875 -6.071875 87.63875 -5.125 86.25 C1.53316745 76.06692037 2.05895178 61.44559618 2.75390625 49.6171875 C3 47 3 47 4 45 C4.34430519 38.89364625 3.92082955 33.03654929 3 27 C2.86897906 24.75034258 2.74472211 22.50028701 2.625 20.25 C2.26080095 14.56849488 1.26816953 9.51964497 -0.4765625 4.109375 C-1 2 -1 2 0 0 Z " fill="#F96E50" transform="translate(663,307)"/>
<path d="M0 0 C2.09350689 3.4019487 2.17942163 6.05272412 2 10 C2.66 10.33 3.32 10.66 4 11 C4.32100045 13.48926761 4.5171509 15.87437281 4.625 18.375 C4.66149658 19.10090332 4.69799316 19.82680664 4.7355957 20.57470703 C4.83676855 22.71615941 4.92120574 24.85762016 5 27 C5.04253906 28.0415625 5.08507812 29.083125 5.12890625 30.15625 C5.45695618 45.37776665 -0.70083646 59.02324179 -6 73 C-6.66 72.01 -7.32 71.02 -8 70 C-7.23600422 67.5552135 -6.38642726 65.34059374 -5.375 63 C-0.41982877 50.68891835 3.03119022 37.34598114 2 24 C1.93296875 22.87464844 1.8659375 21.74929688 1.796875 20.58984375 C1.48750457 15.93381877 1.14280339 11.52359677 0 7 C-0.03888349 4.66699067 -0.0448635 2.33290199 0 0 Z " fill="#F06556" transform="translate(623,344)"/>
<path d="M0 0 C0.66 0.33 1.32 0.66 2 1 C-1.22774439 21.08374289 -13.53173027 41.02174298 -28 55 C-27.75 52.125 -27.75 52.125 -27 49 C-25.0625 47.875 -25.0625 47.875 -23 47 C-21.73195434 44.9664052 -21.73195434 44.9664052 -21 43 C-20.34 43 -19.68 43 -19 43 C-18.938125 42.29875 -18.87625 41.5975 -18.8125 40.875 C-17.70970684 36.97280881 -15.65783979 35.05651576 -13 32 C-12.67 31.01 -12.34 30.02 -12 29 C-11.34 29 -10.68 29 -10 29 C-10 27.68 -10 26.36 -10 25 C-9.34 25 -8.68 25 -8 25 C-7.88527344 24.49210938 -7.77054688 23.98421875 -7.65234375 23.4609375 C-6.77009658 20.13269969 -5.66329618 16.8856674 -4.5625 13.625 C-4.34529297 12.97789062 -4.12808594 12.33078125 -3.90429688 11.6640625 C-3.27041592 9.77574446 -2.63522541 7.88786619 -2 6 C-1.33265929 4.00022481 -0.66573766 2.00030943 0 0 Z " fill="#F67447" transform="translate(533,543)"/>
<path d="M0 0 C0.33 0.66 0.66 1.32 1 2 C-4.84164253 16.27369668 -16.17155675 29.3073366 -27 40 C-26.67 38.35 -26.34 36.7 -26 35 C-24.515 34.505 -24.515 34.505 -23 34 C-23 33.34 -23 32.68 -23 32 C-22.34 32 -21.68 32 -21 32 C-20.73316406 31.42507813 -20.46632813 30.85015625 -20.19140625 30.2578125 C-18.95935505 27.92297449 -17.55161725 25.96105816 -15.9375 23.875 C-13.76773805 21.06372737 -13.76773805 21.06372737 -12 18 C-11.34 18 -10.68 18 -10 18 C-9.896875 17.236875 -9.79375 16.47375 -9.6875 15.6875 C-8.91758932 12.67784917 -8.1262648 12.1262648 -6 10 C-4.87351782 8.03370865 -4.87351782 8.03370865 -3.9375 5.9375 C-2.77100702 3.42181031 -1.98948974 1.98948974 0 0 Z " fill="#F36E4B" transform="translate(654,406)"/>
<path d="M0 0 C0.66 0.33 1.32 0.66 2 1 C0.70024676 7.71539173 -1.29928888 13.72019113 -4 20 C-5.17683393 16.572175 -4.80839977 14.53551019 -3.6875 11.125 C-3.40648437 10.25359375 -3.12546875 9.3821875 -2.8359375 8.484375 C-2.56007813 7.66453125 -2.28421875 6.8446875 -2 6 C-1.608125 4.80375 -1.21625 3.6075 -0.8125 2.375 C-0.544375 1.59125 -0.27625 0.8075 0 0 Z " fill="#EC6D46" transform="translate(533,543)"/>
<path d="M0 0 C0.66 0.33 1.32 0.66 2 1 C2.88671875 3.984375 2.88671875 3.984375 3.6875 7.75 C3.95949219 8.98234375 4.23148438 10.2146875 4.51171875 11.484375 C4.96515396 14.74910854 4.89155218 16.86460844 4 20 C3.67 20 3.34 20 3 20 C2.87882813 19.20335937 2.75765625 18.40671875 2.6328125 17.5859375 C1.77853343 12.18426523 0.77309399 7.18289013 -1 2 C-0.67 1.34 -0.34 0.68 0 0 Z " fill="#F0615D" transform="translate(663,307)"/>
<path d="M0 0 C0.99 0 1.98 0 3 0 C3 0.66 3 1.32 3 2 C1.30725716 3.56432787 -0.45569852 5.05328572 -2.25 6.5 C-3.22453125 7.2940625 -4.1990625 8.088125 -5.203125 8.90625 C-7.44894762 10.58748034 -9.4465803 11.88135899 -12 13 C-11.67 12.01 -11.34 11.02 -11 10 C-10.34 10 -9.68 10 -9 10 C-8.67 9.01 -8.34 8.02 -8 7 C-6.68352881 6.30062468 -5.34977849 5.63270867 -4 5 C-3.67 4.34 -3.34 3.68 -3 3 C-2.34 3 -1.68 3 -1 3 C-0.67 2.01 -0.34 1.02 0 0 Z " fill="#F77449" transform="translate(500,599)"/>
<path d="M0 0 C0.33 0.66 0.66 1.32 1 2 C-0.25 5.5625 -0.25 5.5625 -2 9 C-2.99 9.33 -3.98 9.66 -5 10 C-5.309375 10.61875 -5.61875 11.2375 -5.9375 11.875 C-7.20298687 14.40597375 -8.67272837 15.44848558 -11 17 C-9.4785708 13.72132006 -7.5944185 10.87944802 -5.5 7.9375 C-3.63418777 5.30876031 -1.78832004 2.68248007 0 0 Z " fill="#0C071E" transform="translate(677,816)"/>
<path d="M0 0 C3.67457661 0.02930284 6.4349318 0.47649706 9.75 2.1875 C6.75 3.1875 6.75 3.1875 4.5625 2.5625 C0.48014216 2.01818562 -2.54794464 3.56153524 -6.25 5.1875 C-5.21115451 0.58689853 -4.74934775 0.03931579 0 0 Z " fill="#13072E" transform="translate(546.25,268.8125)"/>
<path d="M0 0 C5.09210286 3.56320845 9.22660027 7.04741286 13 12 C9.75728494 11.4409112 8.06942576 10.5867822 6 8 C6 7.34 6 6.68 6 6 C5.195625 5.7525 4.39125 5.505 3.5625 5.25 C2.716875 4.8375 1.87125 4.425 1 4 C0.33984375 1.921875 0.33984375 1.921875 0 0 Z " fill="#F84CA9" transform="translate(549,177)"/>
<path d="M0 0 C0 0.66 0 1.32 0 2 C-3.15506142 2.93619813 -5.96586502 3.1057123 -9.25 3.0625 C-10.14203125 3.05347656 -11.0340625 3.04445313 -11.953125 3.03515625 C-12.62859375 3.02355469 -13.3040625 3.01195312 -14 3 C-11.20387283 1.13591522 -9.62830652 0.51163882 -6.4375 -0.1875 C-5.65246094 -0.36667969 -4.86742187 -0.54585938 -4.05859375 -0.73046875 C-2 -1 -2 -1 0 0 Z " fill="#F4518A" transform="translate(434,469)"/>
<path d="M0 0 C-4.62765919 2.54521255 -8.8896856 3.8545847 -14 5 C-14.33 4.34 -14.66 3.68 -15 3 C-13.06643218 2.30151736 -11.12797702 1.61655186 -9.1875 0.9375 C-8.10855469 0.55464844 -7.02960938 0.17179687 -5.91796875 -0.22265625 C-3 -1 -3 -1 0 0 Z " fill="#F14F91" transform="translate(420,473)"/>
<path d="M0 0 C-2.89399469 2.34211663 -5.67155428 3.86862171 -9.125 5.25 C-10.42824219 5.78367187 -10.42824219 5.78367187 -11.7578125 6.328125 C-14 7 -14 7 -16 6 C-13.9021477 4.79994469 -11.7979751 3.61497017 -9.6875 2.4375 C-8.79514648 1.92413086 -8.79514648 1.92413086 -7.88476562 1.40039062 C-3.33984375 -1.11328125 -3.33984375 -1.11328125 0 0 Z " fill="#FC549F" transform="translate(406,478)"/>
<path d="M0 0 C1.2989839 0.90626784 2.58893167 1.82549537 3.875 2.75 C4.59429688 3.26046875 5.31359375 3.7709375 6.0546875 4.296875 C8.08570565 6.07503547 8.97855012 7.52701607 10 10 C9.01 10 8.02 10 7 10 C7 9.01 7 8.02 7 7 C5.35 6.67 3.7 6.34 2 6 C2 5.01 2 4.02 2 3 C1.34 3 0.68 3 0 3 C0 2.01 0 1.02 0 0 Z " fill="#F84FA2" transform="translate(566,192)"/>
<path d="M0 0 C1.65 0 3.3 0 5 0 C5 0.99 5 1.98 5 3 C1.04 3 -2.92 3 -7 3 C-7 2.67 -7 2.34 -7 2 C-4.69 2 -2.38 2 0 2 C0 1.34 0 0.68 0 0 Z " fill="#290F3A" transform="translate(416,639)"/>
<path d="M0 0 C0.99 0.99 1.98 1.98 3 3 C2.34 4.98 1.68 6.96 1 9 C0.34 9 -0.32 9 -1 9 C-0.67 6.03 -0.34 3.06 0 0 Z " fill="#EA5E53" transform="translate(625,379)"/>
<path d="M0 0 C0.66 0 1.32 0 2 0 C2.36923077 5.53846154 2.36923077 5.53846154 0.5 7.875 C-0.2425 8.431875 -0.2425 8.431875 -1 9 C-1.125 2.25 -1.125 2.25 0 0 Z " fill="#F25F50" transform="translate(667,352)"/>
<path d="M0 0 C3.7952131 1.49097658 5.61042731 3.75700849 8 7 C7.401875 6.690625 6.80375 6.38125 6.1875 6.0625 C3.91043228 4.89790296 3.91043228 4.89790296 1 4 C0.3125 1.9375 0.3125 1.9375 0 0 Z " fill="#F9519E" transform="translate(576,202)"/>
</svg>
